IKResults-ET5
version=1
nRows=12
nColumns=24
inDegrees=yes

Units are S.I. units (second, meters, Newtons, ...)
If the header above contains a line with 'inDegrees', this indicates whether rotational values are in degrees (yes) or radians (no).

endheader
time	pelvis_tilt	pelvis_list	pelvis_rotation	pelvis_tx	pelvis_ty	pelvis_tz	hip_flexion_r	hip_adduction_r	hip_rotation_r	knee_angle_r	ankle_angle_r	subtalar_angle_r	mtp_angle_r	hip_flexion_l	hip_adduction_l	hip_rotation_l	knee_angle_l	ankle_angle_l	subtalar_angle_l	mtp_angle_l	lumbar_extension	lumbar_bending	lumbar_rotation
      2.92000000	      4.27318180	     -7.47899574	    175.96478830	      3.76131010	      0.98411377	     -0.20327147	    184.56203488	   -168.99075061	   -180.31434806	    -55.48053786	    -11.90341700	      9.45438538	      0.00000000	     24.13677045	     10.35962420	      1.31519856	    -18.55601730	      3.88693453	     -4.89101975	      0.00000000	    -10.58853150	    -10.81480089	      5.87427685
      2.93000000	      4.10872151	     -7.67268810	    176.17267976	      3.74893031	      0.98574785	     -0.20183621	    186.20279912	   -168.69009373	   -180.08311774	    -57.95731287	    -10.53465168	      7.72695817	      0.00000000	     23.01441579	     10.79427496	      1.25933763	    -18.29309987	      4.53939468	     -4.74413227	      0.00000000	    -10.76879060	    -11.03631488	      6.13967251
      2.94000000	      3.96250790	     -7.77460112	    176.26754736	      3.73644654	      0.98749178	     -0.20056025	    187.89577853	   -168.54802223	   -179.72324553	    -60.07104286	     -8.65609300	      6.25435354	      0.00000000	     21.89043493	     11.04555652	      1.03113648	    -18.08033913	      5.39751026	     -4.00681136	      0.00000000	    -10.83331182	    -11.07902273	      6.13163953
      2.95000000	      3.84315064	     -7.81790055	    176.28044058	      3.72410635	      0.98941964	     -0.19956042	    189.66721200	   -168.53062982	   -179.29115639	    -61.86710865	     -7.02416072	      4.81155539	      0.00000000	     20.77435377	     11.18090475	      0.57201806	    -17.83720980	      6.46169110	     -2.80263261	      0.00000000	    -10.86893222	    -11.05448436	      6.09294589
      2.96000000	      3.71217028	     -7.81239102	    176.17901199	      3.71151173	      0.99143870	     -0.19857313	    191.44018128	   -168.58977335	   -178.79675515	    -63.21194108	     -6.01071659	      3.23971019	      0.00000000	     19.54103053	     11.25858608	      0.28796668	    -17.35084085	      7.21783269	     -2.05857083	      0.00000000	    -10.85950538	    -10.95485700	      6.15697372
      2.97000000	      3.56778762	     -7.68189913	    176.09931546	      3.69916629	      0.99359370	     -0.19782284	    193.13451853	   -168.86924234	   -178.29069986	    -64.21016239	     -5.23299731	      1.68683282	      0.00000000	     18.29653350	     11.22188303	      0.30583052	    -16.80655409	      7.78550509	     -1.65781524	      0.00000000	    -10.92890183	    -10.72788409	      6.25732263
      2.98000000	      3.44436800	     -7.54937772	    176.00100914	      3.68706578	      0.99574464	     -0.19695954	    194.81972189	   -169.19488052	   -177.76858645	    -64.90039731	     -5.41965272	      0.14730328	      0.00000000	     17.04965984	     11.16714707	      0.04482747	    -16.32410922	      8.49416592	     -0.91683856	      0.00000000	    -10.99927252	    -10.47798716	      6.41980573
      2.99000000	      3.22785366	     -7.31864315	    175.96040055	      3.67503109	      0.99800078	     -0.19626833	    196.35642312	   -169.63289816	   -177.35731924	    -65.21862465	     -4.28865793	     -1.09276780	      0.00000000	     15.79780712	     11.02970653	     -0.08649841	    -15.95718318	      9.13508008	     -0.25923722	      0.00000000	    -11.21560552	    -10.14352386	      6.56746821
      3.00000000	      2.99671955	     -7.09094438	    175.90003230	      3.66265336	      1.00015258	     -0.19527038	    197.76790642	   -170.06235191	   -176.98105718	    -65.24644696	     -3.09035619	     -1.65880624	      0.00000000	     14.40352216	     10.96486666	      0.15139218	    -15.36248960	      9.51187039	     -0.28041503	      0.00000000	    -11.36477635	     -9.75098591	      6.64136040
      3.01000000	      2.67210070	     -6.78539249	    175.95233231	      3.65038562	      1.00232287	     -0.19442277	    198.90847306	   -170.66561436	   -176.61116119	    -65.02595521	     -1.04531929	     -2.02348486	      0.00000000	     12.96073181	     10.80798816	      0.24315332	    -14.89672449	     10.06946425	      0.16567600	      0.00000000	    -11.73072499	     -9.33335207	      6.81615647
      3.02000000	      2.41584706	     -6.51622175	    176.04341218	      3.63843005	      1.00416218	     -0.19342740	    200.19484751	   -171.15804976	   -176.41758911	    -64.61850689	      1.38701413	     -1.90220503	      0.00000000	     11.58600305	     10.74772620	      0.76382481	    -14.38033141	     10.33818970	     -0.07605739	      0.00000000	    -12.01920840	     -8.92075412	      6.88912486
      3.03000000	      2.16086829	     -6.23316941	    176.21465041	      3.62657023	      1.00574535	     -0.19228761	    201.46786341	   -171.60512219	   -176.35094107	    -63.83036003	      3.14755275	     -1.58713765	      0.00000000	     10.18364194	     10.68838820	      1.41045825	    -13.78287951	     10.63364899	     -0.44638607	      0.00000000	    -12.33767457	     -8.46856761	      6.87144809
